<svg id="Icons" height="512" viewBox="0 0 74 74" width="512" xmlns="http://www.w3.org/2000/svg"><path d="m59.856 72a1 1 0 0 1 -.751-.339c-.465-.528-11.394-13.038-11.394-22.017a12.145 12.145 0 0 1 24.289 0c0 8.979-10.928 21.489-11.394 22.017a1 1 0 0 1 -.75.339zm0-32.5a10.156 10.156 0 0 0 -10.145 10.144c0 6.946 7.68 16.817 10.145 19.805 2.463-2.989 10.144-12.865 10.144-19.805a10.156 10.156 0 0 0 -10.144-10.144z"/><path d="m59.856 57.86a7.89 7.89 0 1 1 7.889-7.889 7.9 7.9 0 0 1 -7.889 7.889zm0-13.779a5.89 5.89 0 1 0 5.889 5.89 5.9 5.9 0 0 0 -5.889-5.89z"/><path d="m14.32 37a1 1 0 0 1 -.751-.339c-.469-.536-11.569-13.235-11.569-22.345a12.316 12.316 0 1 1 24.631 0c0 9.11-11.093 21.809-11.565 22.345a1 1 0 0 1 -.746.339zm0-33a10.328 10.328 0 0 0 -10.32 10.316c0 7.068 7.829 17.116 10.32 20.134 2.49-3.02 10.315-13.072 10.315-20.134a10.327 10.327 0 0 0 -10.315-10.316z"/><path d="m14.32 22.643a8 8 0 1 1 8-8 8.005 8.005 0 0 1 -8 8zm0-13.992a6 6 0 1 0 6 6 6 6 0 0 0 -6-6z"/><path d="m37.49 72h-2.97a1 1 0 0 1 0-2h2.97a1 1 0 1 1 0 2z"/><path d="m17.61 72h-6.11a9.511 9.511 0 0 1 -9.5-9.5v-1a9.511 9.511 0 0 1 9.5-9.5h18a7.5 7.5 0 0 0 0-15h-15.18a1 1 0 0 1 0-2h15.18a9.5 9.5 0 0 1 0 19h-18a7.508 7.508 0 0 0 -7.5 7.5v1a7.508 7.508 0 0 0 7.5 7.5h6.11a1 1 0 0 1 0 2z"/><path d="m27.52 72h-2.91a1 1 0 0 1 0-2h2.91a1 1 0 0 1 0 2z"/><path d="m59.86 72h-15.37a1 1 0 0 1 0-2h15.37a1 1 0 1 1 0 2z"/></svg>